<?xml version="1.0" encoding="UTF-8"?>
<svg id="Camada_2" data-name="Camada 2" xmlns="http://www.w3.org/2000/svg" viewBox="0 0 24 24">
  <defs>
    <style>
      .cls-1 {
        fill: #dbf300;
        stroke-width: 0px;
      }
    </style>
  </defs>
  <g id="Camada_1-2" data-name="Camada 1">
    <path class="cls-1" d="M19,0H5C2.24,0,0,2.24,0,5v14c0,2.76,2.24,5,5,5h14c2.76,0,5-2.24,5-5V5c0-2.76-2.24-5-5-5ZM8,19h-3v-11h3v11ZM6.5,6.73c-.97,0-1.75-.79-1.75-1.76s.78-1.76,1.75-1.76,1.75.79,1.75,1.76-.78,1.76-1.75,1.76ZM20,19h-3v-5.6c0-3.37-4-3.11-4,0v5.6h-3v-11h3v1.77c1.4-2.59,7-2.78,7,2.48v6.76Z"/>
  </g>
</svg>