<svg width="117" height="27" viewBox="0 0 117 27" fill="none" xmlns="http://www.w3.org/2000/svg">
<path d="M38.3516 8.49512V16.1328C38.3516 16.7201 38.4447 17.1999 38.6309 17.5723C38.9746 18.2598 39.6156 18.6035 40.5537 18.6035C41.9001 18.6035 42.8167 18.002 43.3037 16.7988C43.5687 16.1543 43.7012 15.2699 43.7012 14.1455V8.49512H45.6348V20H43.8086L43.8301 18.3027C43.5794 18.7396 43.2679 19.1084 42.8955 19.4092C42.1579 20.0107 41.2627 20.3115 40.21 20.3115C38.57 20.3115 37.4528 19.7637 36.8584 18.668C36.5361 18.0807 36.375 17.2965 36.375 16.3154V8.49512H38.3516ZM46.9084 8.49512H49.4113L52.0539 12.5449L54.7287 8.49512L57.0812 8.54883L53.2033 14.1025L57.2531 20H54.7824L51.925 15.6816L49.1535 20H46.7043L50.7541 14.1025L46.9084 8.49512ZM58.806 17.6582H61.0511V20H58.806V17.6582ZM63.6567 4.16602H65.5366V9.8916C65.9591 9.34017 66.464 8.92122 67.0513 8.63477C67.6385 8.34115 68.2759 8.19434 68.9634 8.19434C70.3957 8.19434 71.5558 8.68848 72.4438 9.67676C73.339 10.6579 73.7866 12.1081 73.7866 14.0273C73.7866 15.8464 73.3462 17.3574 72.4653 18.5605C71.5845 19.7637 70.3634 20.3652 68.8022 20.3652C67.9285 20.3652 67.1909 20.154 66.5893 19.7314C66.2313 19.4808 65.8481 19.0798 65.4399 18.5283V20H63.6567V4.16602ZM68.6841 18.6572C69.7296 18.6572 70.5102 18.2419 71.0259 17.4111C71.5486 16.5804 71.81 15.4847 71.81 14.124C71.81 12.9137 71.5486 11.9111 71.0259 11.1162C70.5102 10.3213 69.7475 9.92383 68.7378 9.92383C67.8569 9.92383 67.0835 10.2497 66.4175 10.9014C65.7586 11.5531 65.4292 12.6273 65.4292 14.124C65.4292 15.2054 65.5652 16.0827 65.8374 16.7559C66.3458 18.0234 67.2947 18.6572 68.6841 18.6572ZM75.4469 8.49512H77.2838V10.4824C77.4342 10.0957 77.803 9.62663 78.3903 9.0752C78.9775 8.5166 79.6543 8.2373 80.4205 8.2373C80.4564 8.2373 80.5172 8.24089 80.6032 8.24805C80.6891 8.25521 80.8359 8.26953 81.0436 8.29102V10.332C80.929 10.3105 80.8216 10.2962 80.7213 10.2891C80.6282 10.2819 80.5244 10.2783 80.4098 10.2783C79.4358 10.2783 78.6875 10.5934 78.1647 11.2236C77.6419 11.8467 77.3805 12.5664 77.3805 13.3828V20H75.4469V8.49512ZM83.5418 16.9385C83.5418 17.4971 83.7459 17.9375 84.1541 18.2598C84.5623 18.582 85.0457 18.7432 85.6043 18.7432C86.2846 18.7432 86.9435 18.5856 87.5809 18.2705C88.6551 17.7477 89.1922 16.8919 89.1922 15.7031V14.1455C88.9559 14.2959 88.6515 14.4212 88.2791 14.5215C87.9067 14.6217 87.5415 14.6934 87.1834 14.7363L86.0125 14.8867C85.3107 14.9798 84.7843 15.1266 84.4334 15.3271C83.839 15.6637 83.5418 16.2008 83.5418 16.9385ZM88.2254 13.0283C88.6694 12.971 88.9666 12.7848 89.117 12.4697C89.2029 12.2979 89.2459 12.0508 89.2459 11.7285C89.2459 11.0697 89.0096 10.5934 88.5369 10.2998C88.0714 9.99902 87.4018 9.84863 86.5281 9.84863C85.5184 9.84863 84.8022 10.1208 84.3797 10.665C84.1434 10.9658 83.9894 11.4134 83.9178 12.0078H82.1131C82.1489 10.5898 82.6072 9.60514 83.4881 9.05371C84.3761 8.49512 85.4038 8.21582 86.5711 8.21582C87.9246 8.21582 89.0239 8.47363 89.8689 8.98926C90.7068 9.50488 91.1258 10.307 91.1258 11.3955V18.0234C91.1258 18.224 91.1652 18.3851 91.2439 18.5068C91.3299 18.6286 91.5053 18.6895 91.7703 18.6895C91.8563 18.6895 91.9529 18.6859 92.0604 18.6787C92.1678 18.6644 92.2824 18.6465 92.4041 18.625V20.0537C92.1033 20.1396 91.8742 20.1934 91.7166 20.2148C91.5591 20.2363 91.3442 20.2471 91.0721 20.2471C90.4061 20.2471 89.9227 20.0107 89.6219 19.5381C89.4643 19.2874 89.3533 18.9329 89.2889 18.4746C88.895 18.9902 88.3292 19.4378 87.5916 19.8174C86.854 20.1969 86.0411 20.3867 85.1531 20.3867C84.0861 20.3867 83.2124 20.0645 82.532 19.4199C81.8589 18.7682 81.5223 17.9554 81.5223 16.9814C81.5223 15.9144 81.8553 15.0872 82.5213 14.5C83.1873 13.9128 84.061 13.5511 85.1424 13.415L88.2254 13.0283ZM93.4951 4.16602H95.375V9.8916C95.7975 9.34017 96.3024 8.92122 96.8896 8.63477C97.4768 8.34115 98.1142 8.19434 98.8017 8.19434C100.234 8.19434 101.394 8.68848 102.282 9.67676C103.177 10.6579 103.625 12.1081 103.625 14.0273C103.625 15.8464 103.185 17.3574 102.304 18.5605C101.423 19.7637 100.202 20.3652 98.6406 20.3652C97.7669 20.3652 97.0293 20.154 96.4277 19.7314C96.0696 19.4808 95.6865 19.0798 95.2783 18.5283V20H93.4951V4.16602ZM98.5224 18.6572C99.568 18.6572 100.349 18.2419 100.864 17.4111C101.387 16.5804 101.648 15.4847 101.648 14.124C101.648 12.9137 101.387 11.9111 100.864 11.1162C100.349 10.3213 99.5859 9.92383 98.5761 9.92383C97.6953 9.92383 96.9218 10.2497 96.2558 10.9014C95.597 11.5531 95.2675 12.6273 95.2675 14.124C95.2675 15.2054 95.4036 16.0827 95.6757 16.7559C96.1842 18.0234 97.1331 18.6572 98.5224 18.6572ZM109.797 18.7539C111.079 18.7539 111.956 18.2705 112.429 17.3037C112.909 16.3298 113.149 15.2484 113.149 14.0596C113.149 12.9854 112.977 12.1117 112.633 11.4385C112.089 10.3786 111.151 9.84863 109.818 9.84863C108.637 9.84863 107.777 10.2998 107.24 11.2021C106.703 12.1045 106.435 13.193 106.435 14.4678C106.435 15.6924 106.703 16.7129 107.24 17.5293C107.777 18.3457 108.63 18.7539 109.797 18.7539ZM109.872 8.16211C111.355 8.16211 112.608 8.65625 113.632 9.64453C114.656 10.6328 115.168 12.0866 115.168 14.0059C115.168 15.8607 114.717 17.3932 113.815 18.6035C112.912 19.8138 111.512 20.4189 109.614 20.4189C108.032 20.4189 106.775 19.8854 105.844 18.8184C104.913 17.7441 104.447 16.3047 104.447 14.5C104.447 12.5664 104.938 11.0267 105.919 9.88086C106.9 8.73503 108.218 8.16211 109.872 8.16211Z" fill="white"/>
<rect x="1.86646" y="8.70453" width="5.74907" height="11.3927" rx="2.87454" transform="rotate(9.42859 1.86646 8.70453)" fill="url(#paint0_linear_533_91)"/>
<rect x="9.78564" y="5.88623" width="5.74907" height="16.8398" rx="2.87454" transform="rotate(9.42859 9.78564 5.88623)" fill="url(#paint1_linear_533_91)"/>
<rect x="17.7434" y="3.09717" width="5.74907" height="22.524" rx="2.87454" transform="rotate(9.42859 17.7434 3.09717)" fill="url(#paint2_linear_533_91)"/>
<rect x="24.3289" y="8.19568" width="5.74907" height="12.0317" rx="2.87454" transform="rotate(9.42859 24.3289 8.19568)" fill="url(#paint3_linear_533_91)"/>
<defs>
<linearGradient id="paint0_linear_533_91" x1="4.74099" y1="8.70453" x2="4.74099" y2="20.0973" gradientUnits="userSpaceOnUse">
<stop stop-color="#DBF300"/>
<stop offset="1" stop-color="#7C8A00"/>
</linearGradient>
<linearGradient id="paint1_linear_533_91" x1="12.6602" y1="5.88623" x2="12.6602" y2="22.726" gradientUnits="userSpaceOnUse">
<stop stop-color="#DBF300"/>
<stop offset="1" stop-color="#7C8A00"/>
</linearGradient>
<linearGradient id="paint2_linear_533_91" x1="20.6179" y1="3.09717" x2="20.6179" y2="25.6211" gradientUnits="userSpaceOnUse">
<stop stop-color="#DBF300"/>
<stop offset="1" stop-color="#7C8A00"/>
</linearGradient>
<linearGradient id="paint3_linear_533_91" x1="27.2034" y1="8.19568" x2="27.2034" y2="20.2273" gradientUnits="userSpaceOnUse">
<stop stop-color="#DBF300"/>
<stop offset="1" stop-color="#7C8A00"/>
</linearGradient>
</defs>
</svg>
